<?xml version="1.0" encoding="UTF-8" standalone="no"?>
<!-- Generator: Adobe Illustrator 16.0.0, SVG Export Plug-In . SVG Version: 6.00 Build 0)  -->

<svg
   xmlns:dc="http://purl.org/dc/elements/1.1/"
   xmlns:cc="http://creativecommons.org/ns#"
   xmlns:rdf="http://www.w3.org/1999/02/22-rdf-syntax-ns#"
   xmlns:svg="http://www.w3.org/2000/svg"
   xmlns="http://www.w3.org/2000/svg"
   xmlns:xlink="http://www.w3.org/1999/xlink"
   xmlns:sodipodi="http://sodipodi.sourceforge.net/DTD/sodipodi-0.dtd"
   xmlns:inkscape="http://www.inkscape.org/namespaces/inkscape"
   version="1.1"
   id="Layer_1"
   x="0px"
   y="0px"
   width="1811.531px"
   height="1191.87px"
   viewBox="0 0 1811.531 1191.87"
   enable-background="new 0 0 1811.531 1191.87"
   xml:space="preserve"
   inkscape:version="0.48.4 r9939"
   sodipodi:docname="xbox_buttons.svg"
   inkscape:export-filename="C:\Users\Cristian\Desktop\opengameart\svg\xbox_buttons.png"
   inkscape:export-xdpi="39.75"
   inkscape:export-ydpi="39.75"><metadata
   id="metadata445"><rdf:RDF><cc:Work
       rdf:about=""><dc:format>image/svg+xml</dc:format><dc:type
         rdf:resource="http://purl.org/dc/dcmitype/StillImage" /><dc:title></dc:title></cc:Work></rdf:RDF></metadata><defs
   id="defs443" /><sodipodi:namedview
   pagecolor="#ffffff"
   bordercolor="#666666"
   borderopacity="1"
   objecttolerance="10"
   gridtolerance="10"
   guidetolerance="10"
   inkscape:pageopacity="0"
   inkscape:pageshadow="2"
   inkscape:window-width="1280"
   inkscape:window-height="658"
   id="namedview441"
   showgrid="false"
   inkscape:zoom="0.34887617"
   inkscape:cx="931.35643"
   inkscape:cy="631.59307"
   inkscape:window-x="-8"
   inkscape:window-y="-8"
   inkscape:window-maximized="1"
   inkscape:current-layer="Layer_1" />
<g
   id="g3"
   transform="translate(-533.14046,-395.55582)">
	
		<ellipse
   stroke-miterlimit="10"
   cx="680.41901"
   cy="575.37"
   rx="86.031998"
   ry="63.5"
   id="ellipse5"
   d="m 766.451,575.37 c 0,35.07008 -38.51783,63.5 -86.03199,63.5 -47.51416,0 -86.032,-28.42992 -86.032,-63.5 0,-35.07009 38.51784,-63.5 86.032,-63.5 47.51416,0 86.03199,28.42991 86.03199,63.5 z"
   sodipodi:cx="680.41901"
   sodipodi:cy="575.37"
   sodipodi:rx="86.031998"
   sodipodi:ry="63.5"
   style="fill:#ffffff;stroke:#000000;stroke-width:8;stroke-miterlimit:10" />
	<ellipse
   cx="680.41803"
   cy="544.37"
   rx="89.052002"
   ry="52.5"
   id="ellipse7"
   d="m 769.47003,544.37 c 0,28.99494 -39.86994,52.5 -89.052,52.5 -49.18206,0 -89.052,-23.50506 -89.052,-52.5 0,-28.99495 39.86994,-52.5 89.052,-52.5 49.18206,0 89.052,23.50505 89.052,52.5 z"
   sodipodi:cx="680.41803"
   sodipodi:cy="544.37"
   sodipodi:rx="89.052002"
   sodipodi:ry="52.5"
   style="fill:#e6e6e6" />
	<ellipse
   stroke-miterlimit="10"
   cx="680.41803"
   cy="499.37"
   rx="127"
   ry="80.5"
   id="ellipse9"
   d="m 807.41803,499.37 c 0,44.45892 -56.85984,80.5 -127,80.5 -70.14016,0 -127,-36.04108 -127,-80.5 0,-44.45893 56.85984,-80.5 127,-80.5 70.14016,0 127,36.04107 127,80.5 z"
   sodipodi:cx="680.41803"
   sodipodi:cy="499.37"
   sodipodi:rx="127"
   sodipodi:ry="80.5"
   style="fill:#ffffff;stroke:#000000;stroke-width:8;stroke-miterlimit:10" />
	
		<ellipse
   stroke-miterlimit="10"
   cx="680.41803"
   cy="490.31601"
   rx="89.052002"
   ry="56.446999"
   id="ellipse11"
   d="m 769.47003,490.31601 c 0,31.17482 -39.86994,56.447 -89.052,56.447 -49.18206,0 -89.052,-25.27218 -89.052,-56.447 0,-31.17482 39.86994,-56.447 89.052,-56.447 49.18206,0 89.052,25.27218 89.052,56.447 z"
   sodipodi:cx="680.41803"
   sodipodi:cy="490.31601"
   sodipodi:rx="89.052002"
   sodipodi:ry="56.446999"
   style="fill:#ffffff;stroke:#000000;stroke-width:5;stroke-miterlimit:10" />
	<g
   id="g13">
		<path
   d="m 701.046,517.484 c -12.01,0.746 -21.25,1.12 -27.721,1.12 -3.423,0 -7.747,-0.063 -12.974,-0.188 -0.373,-7.279 -0.561,-14.56 -0.561,-21.84 0,-7.094 0.342,-17.765 1.027,-32.014 l 17.08,0.093 c -0.373,12.383 -0.56,20.286 -0.56,23.707 v 12.974 l 23.614,-0.187 0.095,16.335 z"
   id="path15"
   inkscape:connector-curvature="0" />
	</g>
	<path
   d="m 665.581,423.347 c 0,0 -58.005,9.846 -86.081,38.772 -9.631,9.921 -16.922,26.064 -16.5,40.75 0.332,11.566 6.89,20.899 11,34.667 0,0 -10.572,-8.213 -14.666,-23.834 -1.263,-4.814 -2.322,-10.357 -2,-16.333 0.357,-6.613 2.306,-13.721 5.333,-20.167 6.226,-13.254 19.247,-28.191 44.999,-39.667 7.996,-3.563 18.738,-7.502 29,-9.667 9.08,-1.914 18,-3.332 28.915,-4.521 z"
   id="path17"
   inkscape:connector-curvature="0"
   style="fill:#cccccc" />
</g>
<g
   id="g19"
   transform="translate(-237.90676,-392.68948)">
	
		<ellipse
   stroke-miterlimit="10"
   cx="974.297"
   cy="579.37"
   rx="86.031998"
   ry="63.5"
   id="ellipse21"
   d="m 1060.329,579.37 c 0,35.07008 -38.5178,63.5 -86.032,63.5 -47.51416,0 -86.032,-28.42992 -86.032,-63.5 0,-35.07009 38.51784,-63.5 86.032,-63.5 47.5142,0 86.032,28.42991 86.032,63.5 z"
   sodipodi:cx="974.297"
   sodipodi:cy="579.37"
   sodipodi:rx="86.031998"
   sodipodi:ry="63.5"
   style="fill:#ffffff;stroke:#000000;stroke-width:8;stroke-miterlimit:10" />
	<ellipse
   cx="974.29602"
   cy="548.37"
   rx="89.052002"
   ry="52.5"
   id="ellipse23"
   d="m 1063.348,548.37 c 0,28.99494 -39.8699,52.5 -89.05198,52.5 -49.18206,0 -89.052,-23.50506 -89.052,-52.5 0,-28.99495 39.86994,-52.5 89.052,-52.5 49.18208,0 89.05198,23.50505 89.05198,52.5 z"
   sodipodi:cx="974.29602"
   sodipodi:cy="548.37"
   sodipodi:rx="89.052002"
   sodipodi:ry="52.5"
   style="fill:#e6e6e6" />
	<ellipse
   stroke-miterlimit="10"
   cx="974.29602"
   cy="503.37"
   rx="127"
   ry="80.5"
   id="ellipse25"
   d="m 1101.296,503.37 c 0,44.45892 -56.8598,80.5 -126.99998,80.5 -70.14016,0 -127,-36.04108 -127,-80.5 0,-44.45893 56.85984,-80.5 127,-80.5 70.14018,0 126.99998,36.04107 126.99998,80.5 z"
   sodipodi:cx="974.29602"
   sodipodi:cy="503.37"
   sodipodi:rx="127"
   sodipodi:ry="80.5"
   style="fill:#ffffff;stroke:#000000;stroke-width:8;stroke-miterlimit:10" />
	
		<ellipse
   stroke-miterlimit="10"
   cx="974.29602"
   cy="494.31601"
   rx="89.052002"
   ry="56.446999"
   id="ellipse27"
   d="m 1063.348,494.31601 c 0,31.17482 -39.8699,56.447 -89.05198,56.447 -49.18206,0 -89.052,-25.27218 -89.052,-56.447 0,-31.17482 39.86994,-56.447 89.052,-56.447 49.18208,0 89.05198,25.27218 89.05198,56.447 z"
   sodipodi:cx="974.29602"
   sodipodi:cy="494.31601"
   sodipodi:rx="89.052002"
   sodipodi:ry="56.446999"
   style="fill:#ffffff;stroke:#000000;stroke-width:5;stroke-miterlimit:10" />
	<path
   d="m 959.581,427.347 c 0,0 -58.005,9.846 -86.081,38.772 -9.631,9.921 -16.922,26.064 -16.5,40.75 0.332,11.566 6.89,20.899 11,34.667 0,0 -10.572,-8.213 -14.666,-23.834 -1.263,-4.814 -2.322,-10.356 -2,-16.333 0.357,-6.613 2.306,-13.721 5.333,-20.167 6.226,-13.254 19.247,-28.191 44.999,-39.667 7.996,-3.563 18.738,-7.502 29,-9.667 9.08,-1.914 18,-3.332 28.915,-4.521 z"
   id="path29"
   inkscape:connector-curvature="0"
   style="fill:#cccccc" />
	<g
   id="g31">
		<path
   d="m 999.314,478.437 c 0,7.94 -4.024,13.775 -12.069,17.505 l 8.872,12.789 -13.748,7.434 -11.829,-16.785 v 13.668 h -14.787 v -31.173 c -1.439,0.374 -2.932,0.747 -4.477,1.119 l -1.998,-15.027 c 10.87,-2.558 20.248,-3.836 28.136,-3.836 5.435,0 10.177,1.013 14.227,3.037 5.116,2.556 7.673,6.313 7.673,11.269 z m -16.625,4.076 c 0,-1.225 -1.04,-2.104 -3.118,-2.638 -1.438,-0.426 -3.037,-0.64 -4.795,-0.64 -1.279,0 -2.691,0.08 -4.236,0.24 v 9.832 c 8.099,-1.171 12.149,-3.437 12.149,-6.794 z"
   id="path33"
   inkscape:connector-curvature="0" />
	</g>
</g>
<g
   id="g35"
   transform="translate(1106.4098,-100.32213)">
	<circle
   stroke-miterlimit="10"
   cx="285.21899"
   cy="477.32001"
   r="72"
   id="circle37"
   d="m 357.21899,477.32001 c 0,39.7645 -32.23549,72 -72,72 -39.7645,0 -72,-32.2355 -72,-72 0,-39.7645 32.2355,-72 72,-72 39.76451,0 72,32.2355 72,72 z"
   sodipodi:cx="285.21899"
   sodipodi:cy="477.32001"
   sodipodi:rx="72"
   sodipodi:ry="72"
   style="fill:#00e328;stroke:#000000;stroke-width:8;stroke-miterlimit:10" />
	<path
   d="m 285.582,407.87 c 0,0 -63.17,24.685 -60,68.894 3.17,44.209 47.802,68.581 60,69.773 12.198,1.192 -60.667,3.787 -72,-69.773 0,-0.001 2,-60.894 72,-68.894 z"
   id="path39"
   inkscape:connector-curvature="0"
   style="opacity:0.2" />
	<g
   id="g41">
		<path
   stroke-miterlimit="10"
   d="m 307.525,474.18 c 0,4.737 -0.854,14.293 -2.562,28.668 l -15.697,-2.148 0.413,-6.03 -8.922,0.247 0.413,5.618 -15.863,2.065 c -1.598,-14.54 -2.396,-24.233 -2.396,-29.081 0,-6.554 2.037,-11.827 6.113,-15.821 4.076,-3.992 9.391,-5.989 15.945,-5.989 6.499,0 11.883,2.12 16.152,6.361 4.27,4.241 6.404,9.611 6.404,16.11 z m -16.936,1.982 c 0,-1.872 -0.441,-3.497 -1.322,-4.874 -1.047,-1.597 -2.451,-2.396 -4.213,-2.396 -1.652,0 -2.933,0.676 -3.842,2.024 -0.909,1.351 -1.363,2.906 -1.363,4.668 0,3.966 0.109,7.519 0.33,10.657 l 10.08,-0.165 c 0.219,-2.863 0.33,-6.168 0.33,-9.914 z"
   id="path43"
   inkscape:connector-curvature="0"
   style="fill:#ffffff;stroke:#000000;stroke-width:4;stroke-miterlimit:10" />
	</g>
</g>
<g
   id="g45"
   transform="translate(1275.5242,-536.00681)">
	<circle
   stroke-miterlimit="10"
   cx="107.637"
   cy="659.32001"
   r="72"
   id="circle47"
   d="m 179.637,659.32001 c 0,39.7645 -32.2355,72 -72,72 -39.764501,0 -71.999999,-32.2355 -71.999999,-72 0,-39.7645 32.235498,-72 71.999999,-72 39.7645,0 72,32.2355 72,72 z"
   sodipodi:cx="107.637"
   sodipodi:cy="659.32001"
   sodipodi:rx="72"
   sodipodi:ry="72"
   style="fill:#008cff;stroke:#000000;stroke-width:8;stroke-miterlimit:10" />
	<path
   d="m 108,589.87 c 0,0 -63.17,24.685 -60,68.894 3.17,44.209 47.802,68.581 60,69.773 12.198,1.192 -60.667,3.787 -72,-69.773 0,-10e-4 2,-60.894 72,-68.894 z"
   id="path49"
   inkscape:connector-curvature="0"
   style="opacity:0.2" />
	<g
   id="g51">
		<path
   stroke-miterlimit="10"
   d="m 135.521,636.745 c -5.437,8.088 -10.739,15.711 -15.91,22.87 5.768,7.624 11.038,14.386 15.811,20.285 l -13.225,10.54 c -4.243,-5.17 -8.651,-10.705 -13.226,-16.605 -4.641,5.966 -9.182,11.634 -13.622,17.004 l -13.126,-10.64 c 4.905,-6.032 10.274,-12.894 16.108,-20.584 -5.105,-7.159 -10.408,-14.782 -15.91,-22.87 L 96.84,626.9 c 3.712,5.702 7.756,11.701 12.131,17.998 4.44,-6.297 8.518,-12.296 12.231,-17.998 l 14.319,9.845 z"
   id="path53"
   inkscape:connector-curvature="0"
   style="fill:#ffffff;stroke:#000000;stroke-width:4;stroke-miterlimit:10" />
	</g>
</g>
<g
   id="g55"
   transform="translate(1163.7367,-349.69428)">
	<circle
   stroke-miterlimit="10"
   cx="456.586"
   cy="477.19199"
   r="72"
   id="circle57"
   d="m 528.586,477.19199 c 0,39.7645 -32.2355,72 -72,72 -39.7645,0 -72,-32.2355 -72,-72 0,-39.76451 32.2355,-72 72,-72 39.7645,0 72,32.23549 72,72 z"
   sodipodi:cx="456.586"
   sodipodi:cy="477.19199"
   sodipodi:rx="72"
   sodipodi:ry="72"
   style="fill:#fbb03b;stroke:#000000;stroke-width:8;stroke-miterlimit:10" />
	<path
   d="m 457,407.87 c 0,0 -63.17,24.685 -60,68.894 3.17,44.209 47.803,68.581 60,69.773 12.197,1.192 -60.666,3.787 -72,-69.773 0,-0.001 2,-60.894 72,-68.894 z"
   id="path59"
   inkscape:connector-curvature="0"
   style="opacity:0.2" />
	<g
   id="g61">
		<path
   stroke-miterlimit="10"
   d="m 478.95,468.63 c 0,5.169 -1.193,9.742 -3.578,13.717 -2.613,4.375 -6.22,7.327 -10.82,8.861 0,4.715 0.027,8.464 0.085,11.246 l -15.165,0.255 c -0.115,-3.18 -0.2,-7.014 -0.256,-11.501 -4.658,-1.59 -8.379,-4.629 -11.161,-9.116 -2.556,-4.26 -3.834,-8.974 -3.834,-14.143 0,-6.759 0.142,-12.069 0.426,-15.932 l 16.018,1.278 c -0.285,3.408 -0.426,8.293 -0.426,14.654 0,5.226 2.186,7.838 6.561,7.838 4.089,0 6.134,-2.386 6.134,-7.157 0,-6.531 -0.143,-11.7 -0.426,-15.506 l 15.932,-1.278 c 0.339,4.204 0.51,9.798 0.51,16.784 z"
   id="path63"
   inkscape:connector-curvature="0"
   style="fill:#ffffff;stroke:#000000;stroke-width:4;stroke-miterlimit:10" />
	</g>
</g>
<g
   id="g65"
   transform="translate(1338.5838,-278.03561)">
	<circle
   stroke-miterlimit="10"
   cx="285.21899"
   cy="659.16101"
   r="72"
   id="circle67"
   d="m 357.21899,659.16101 c 0,39.7645 -32.23549,72 -72,72 -39.7645,0 -72,-32.2355 -72,-72 0,-39.7645 32.2355,-72 72,-72 39.76451,0 72,32.2355 72,72 z"
   sodipodi:cx="285.21899"
   sodipodi:cy="659.16101"
   sodipodi:rx="72"
   sodipodi:ry="72"
   style="fill:#ed1c24;stroke:#000000;stroke-width:8;stroke-miterlimit:10" />
	<path
   d="m 286.203,589.87 c 0,0 -63.17,24.685 -60,68.894 3.17,44.209 47.802,68.581 60,69.773 12.198,1.192 -60.667,3.787 -72,-69.773 0,-10e-4 2,-60.894 72,-68.894 z"
   id="path69"
   inkscape:connector-curvature="0"
   style="opacity:0.2" />
	<g
   id="g71">
		<path
   stroke-miterlimit="10"
   d="m 312.824,667.041 c 0,6.079 -3.152,10.906 -9.457,14.484 -5.282,3.01 -11.219,4.516 -17.807,4.516 l -4.26,-7.838 v 6.134 h -16.018 v -33.312 l -5.623,1.192 -2.045,-15.932 c 10.678,-2.67 20.703,-4.004 30.075,-4.004 5.509,0 10.45,0.852 14.824,2.556 5.964,2.329 8.946,5.794 8.946,10.394 0,3.92 -2.5,7.47 -7.497,10.65 5.908,2.159 8.862,5.878 8.862,11.16 z m -21.726,-17.465 -0.171,-0.341 c -0.738,-0.567 -2.442,-0.853 -5.111,-0.853 -1.308,0 -2.812,0.058 -4.516,0.171 v 6.134 c 6.532,-0.965 9.798,-2.668 9.798,-5.111 z m 2.897,17.295 -0.256,-0.596 c -0.568,-0.396 -1.591,-0.597 -3.066,-0.597 -2.443,0 -5.567,0.455 -9.372,1.362 v 6.305 c 2.727,-0.51 5.225,-1.191 7.497,-2.044 3.463,-1.363 5.197,-2.84 5.197,-4.43 z"
   id="path73"
   inkscape:connector-curvature="0"
   style="fill:#ffffff;stroke:#000000;stroke-width:4;stroke-miterlimit:10" />
	</g>
</g>

<g
   id="g87"
   transform="translate(-421.35294,-352.56062)">
	<g
   id="g89">
		<path
   d="m 792.348,835.87 c -2.195,0 -3.98,-1.77 -4,-3.965 l -0.398,-44.75 -44.998,-0.549 c -2.189,-0.026 -3.951,-1.81 -3.951,-4 v -71.104 c 0,-1.071 0.43,-2.097 1.191,-2.849 0.749,-0.738 1.759,-1.151 2.809,-1.151 0.019,0 45.256,0.644 45.256,0.644 l 0.092,-47.285 c 0.004,-2.206 1.794,-3.992 4,-3.992 h 71.106 c 2.185,0 3.965,1.752 3.999,3.936 l 0.73,45.5 45.921,1.199 c 2.168,0.057 3.896,1.83 3.896,3.999 v 71.104 c 0,1.066 -0.426,2.089 -1.183,2.84 -0.75,0.744 -1.763,1.16 -2.817,1.16 -0.011,0 -45.817,-0.371 -45.817,-0.371 l -0.729,45.698 c -0.034,2.185 -1.814,3.937 -3.999,3.937 h -71.108 z"
   id="path91"
   inkscape:connector-curvature="0"
   style="fill:#8e8e8e" />
		<path
   d="m 863.227,660.87 0.906,49.334 49.867,1.298 v 71.104 l -49.754,-0.403 -0.792,49.667 H 828.827 792.348 L 791.914,783.203 743,782.606 v -71.104 l 49.248,0.701 0.1,-51.334 H 863 m 0.454,-7.999 h -71.106 c -4.412,0 -7.991,3.572 -8,7.984 l -0.084,43.418 -41.149,-0.403 c -0.038,0 -0.076,0 -0.114,0 -2.101,0 -4.118,0.643 -5.616,2.119 -1.525,1.504 -2.384,3.372 -2.384,5.514 v 71.104 c 0,4.38 3.522,7.946 7.902,8 l 41.082,0.501 0.363,40.834 c 0.039,4.391 3.609,7.929 8,7.929 h 36.479 34.627 c 4.368,0 7.93,-3.505 7.999,-7.872 l 0.665,-41.599 41.817,0.471 c 0.021,0 0.043,0 0.064,0 2.109,0 4.135,-0.965 5.634,-2.452 1.515,-1.502 2.366,-3.679 2.366,-5.812 v -71.104 c 0,-4.337 -3.456,-7.884 -7.791,-7.997 l -42.087,-1.099 -0.669,-41.666 c -0.069,-4.366 -3.63,-7.87 -7.998,-7.87 l 0,0 z"
   id="path93"
   inkscape:connector-curvature="0"
   style="fill:#1a1a1a" />
	</g>
	
		<polygon
   stroke-miterlimit="10"
   points="809.147,694.87 818.737,685.442 828.326,676.04 837.916,685.455 847.506,694.87 828.326,694.87 "
   id="polygon95"
   style="fill:#f2f2f2;stroke:#000000;stroke-width:4;stroke-linecap:round;stroke-linejoin:round;stroke-miterlimit:10" />
	<rect
   x="792"
   y="660.87"
   width="7"
   height="51"
   id="rect97"
   style="opacity:0.2" />
	<polygon
   points="799,716.87 799,711.87 743,711.502 742,716.87 "
   id="polygon99"
   style="opacity:0.2" />
	<rect
   x="742"
   y="716.87"
   width="8"
   height="67"
   id="rect101"
   style="opacity:0.2" />
</g>
<g
   id="g103"
   transform="translate(556.07123,-676.45778)">
	<g
   id="g105">
		<path
   d="m 575.348,1163.87 c -2.195,0 -3.98,-1.748 -4,-3.943 l -0.398,-44.739 -44.998,-0.544 c -2.19,-0.027 -3.951,-1.804 -3.951,-3.994 v -71.104 c 0,-1.07 0.429,-2.097 1.192,-2.849 0.749,-0.738 1.758,-1.151 2.808,-1.151 0.019,0 45.256,0.644 45.256,0.644 l 0.092,-47.306 c 0.004,-2.206 1.794,-4.014 4,-4.014 h 71.106 c 2.185,0 3.965,1.773 3.999,3.957 l 0.73,45.511 45.921,1.204 c 2.168,0.057 3.896,1.835 3.896,4.004 v 71.104 c 0,1.066 -0.426,2.089 -1.183,2.84 -0.75,0.743 -1.763,1.16 -2.817,1.16 -0.011,0 -45.817,-0.371 -45.817,-0.371 l -0.729,45.677 c -0.034,2.185 -1.814,3.915 -3.999,3.915 h -71.108 z"
   id="path107"
   inkscape:connector-curvature="0"
   style="fill:#8e8e8e" />
		<path
   d="m 646.454,988.87 0.792,49.355 49.754,1.32 v 71.104 l -49.754,-0.425 -0.792,49.646 h -34.627 -36.479 l -0.434,-48.646 -48.914,-0.575 v -71.104 l 49.248,0.68 0.1,-51.355 H 646 m 0.454,-8 h -71.106 c -4.412,0 -7.991,3.594 -8,8.006 l -0.084,43.408 -41.15,-0.414 c -0.038,0 -0.076,0 -0.114,0 -2.101,0 -4.119,0.664 -5.616,2.141 -1.525,1.504 -2.384,3.394 -2.384,5.535 v 71.104 c 0,4.38 3.522,7.946 7.902,7.999 l 41.082,0.502 0.364,40.812 c 0.039,4.391 3.609,7.907 8,7.907 h 36.479 34.627 c 4.368,0 7.93,-3.483 7.999,-7.851 l 0.665,-41.609 41.817,0.46 c 0.021,0 0.043,0 0.064,0 2.109,0 4.135,-0.943 5.634,-2.431 1.515,-1.502 2.366,-3.657 2.366,-5.79 v -71.104 c 0,-4.337 -3.456,-7.884 -7.791,-7.997 l -42.087,-1.099 -0.669,-41.688 c -0.069,-4.366 -3.63,-7.891 -7.998,-7.891 l 0,0 z"
   id="path109"
   inkscape:connector-curvature="0"
   style="fill:#1a1a1a" />
	</g>
	
		<polygon
   stroke-miterlimit="10"
   points="664,1055.234 673.383,1064.824 682.764,1074.413 673.382,1084.002 664,1093.592 664,1074.413 "
   id="polygon111"
   style="fill:#f2f2f2;stroke:#000000;stroke-width:4;stroke-linecap:round;stroke-linejoin:round;stroke-miterlimit:10" />
	<rect
   x="575"
   y="988.87"
   width="7"
   height="51"
   id="rect113"
   style="opacity:0.2" />
	<polygon
   points="582,1044.87 582,1039.87 526,1039.502 525,1044.87 "
   id="polygon115"
   style="opacity:0.2" />
	<rect
   x="525"
   y="1044.87"
   width="8"
   height="67"
   id="rect117"
   style="opacity:0.2" />
</g>
<g
   id="g119"
   transform="translate(401.28852,-513.07603)">
	<g
   id="g121">
		<path
   d="m 477.348,999.87 c -2.195,0 -3.98,-1.748 -4,-3.943 l -0.398,-44.739 -44.998,-0.544 c -2.19,-0.027 -3.951,-1.804 -3.951,-3.994 v -71.104 c 0,-1.07 0.429,-2.097 1.192,-2.849 0.749,-0.738 1.758,-1.151 2.808,-1.151 0.019,0 45.256,0.644 45.256,0.644 l 0.092,-47.306 c 0.004,-2.206 1.794,-4.014 4,-4.014 h 71.106 c 2.184,0 3.964,1.773 4,3.957 l 0.73,45.511 45.92,1.204 c 2.167,0.057 3.896,1.835 3.896,4.004 v 71.104 c 0,1.066 -0.426,2.089 -1.183,2.84 -0.75,0.743 -1.762,1.16 -2.817,1.16 -0.011,0 -45.818,-0.371 -45.818,-0.371 l -0.729,45.677 c -0.035,2.185 -1.815,3.915 -4,3.915 h -71.106 z"
   id="path123"
   inkscape:connector-curvature="0"
   style="fill:#8e8e8e" />
		<path
   d="m 548.454,824.87 0.792,49.355 49.754,1.32 v 71.104 l -49.754,-0.425 -0.792,49.646 H 513.827 477.348 L 476.914,947.224 428,946.649 v -71.104 l 49.248,0.68 0.1,-51.355 H 548 m 0.454,-8 h -71.106 c -4.412,0 -7.991,3.594 -8,8.006 l -0.084,43.408 -41.15,-0.414 c -0.038,0 -0.076,0 -0.114,0 -2.101,0 -4.119,0.664 -5.616,2.141 -1.525,1.504 -2.384,3.394 -2.384,5.535 v 71.104 c 0,4.38 3.522,7.946 7.902,7.999 l 41.082,0.502 0.364,40.812 c 0.039,4.391 3.609,7.907 8,7.907 h 36.479 34.627 c 4.369,0 7.929,-3.483 7.999,-7.851 l 0.666,-41.609 41.816,0.46 c 0.022,0 0.043,0 0.065,0 2.11,0 4.135,-0.943 5.634,-2.431 1.515,-1.502 2.366,-3.657 2.366,-5.79 v -71.104 c 0,-4.337 -3.456,-7.884 -7.791,-7.997 l -42.087,-1.099 -0.669,-41.688 c -0.07,-4.366 -3.631,-7.891 -7.999,-7.891 l 0,0 z"
   id="path125"
   inkscape:connector-curvature="0"
   style="fill:#1a1a1a" />
	</g>
	
		<polygon
   stroke-miterlimit="10"
   points="465,929.591 455.498,920.001 446.059,910.413 455.529,900.823 465,891.233 465,910.413 "
   id="polygon127"
   style="fill:#f2f2f2;stroke:#000000;stroke-width:4;stroke-linecap:round;stroke-linejoin:round;stroke-miterlimit:10" />
	<rect
   x="477"
   y="824.87"
   width="7"
   height="51"
   id="rect129"
   style="opacity:0.2" />
	<polygon
   points="484,880.87 484,875.87 428,875.502 427,880.87 "
   id="polygon131"
   style="opacity:0.2" />
	<rect
   x="427"
   y="880.87"
   width="8"
   height="67"
   id="rect133"
   style="opacity:0.2" />
</g>
<g
   id="g135"
   transform="translate(-65.92597,-518.80872)">
	<g
   id="g137">
		<path
   d="m 692.348,999.87 c -2.195,0 -3.98,-1.77 -4,-3.965 l -0.398,-44.75 -44.998,-0.549 c -2.19,-0.027 -3.951,-1.81 -3.951,-4 v -71.104 c 0,-1.07 0.429,-2.097 1.192,-2.849 0.749,-0.738 1.758,-1.151 2.808,-1.151 0.019,0 45.256,0.644 45.256,0.644 l 0.092,-47.284 c 0.004,-2.206 1.794,-3.992 4,-3.992 h 71.106 c 2.185,0 3.965,1.752 3.999,3.936 l 0.73,45.5 45.921,1.198 c 2.168,0.057 3.896,1.83 3.896,3.999 v 71.104 c 0,1.066 -0.426,2.089 -1.183,2.84 -0.75,0.743 -1.763,1.16 -2.817,1.16 -0.011,0 -45.817,-0.371 -45.817,-0.371 l -0.729,45.698 c -0.034,2.185 -1.814,3.937 -3.999,3.937 h -71.108 z"
   id="path139"
   inkscape:connector-curvature="0"
   style="fill:#8e8e8e" />
		<path
   d="m 763.227,824.87 0.906,49.334 49.867,1.298 v 71.104 l -49.754,-0.403 -0.792,49.667 H 728.827 692.348 L 691.914,947.203 643,946.606 v -71.104 l 49.248,0.701 0.1,-51.334 H 763 m 0.454,-7.999 h -71.106 c -4.412,0 -7.991,3.572 -8,7.984 l -0.084,43.418 -41.149,-0.402 c -0.038,0 -0.076,0 -0.114,0 -2.101,0 -4.119,0.643 -5.616,2.119 -1.525,1.504 -2.384,3.372 -2.384,5.514 v 71.104 c 0,4.38 3.522,7.946 7.902,7.999 l 41.082,0.502 0.363,40.834 c 0.039,4.391 3.609,7.929 8,7.929 h 36.479 34.627 c 4.368,0 7.93,-3.505 7.999,-7.872 l 0.665,-41.599 41.817,0.471 c 0.021,0 0.043,0 0.064,0 2.109,0 4.135,-0.965 5.634,-2.452 1.515,-1.502 2.366,-3.679 2.366,-5.812 v -71.104 c 0,-4.337 -3.456,-7.884 -7.791,-7.997 l -42.087,-1.099 -0.669,-41.666 c -0.069,-4.367 -3.63,-7.871 -7.998,-7.871 l 0,0 z"
   id="path141"
   inkscape:connector-curvature="0"
   style="fill:#1a1a1a" />
	</g>
	
		<polygon
   stroke-miterlimit="10"
   points="747.504,969.87 737.914,979.383 728.325,988.829 718.735,979.349 709.146,969.87 728.325,969.87 "
   id="polygon143"
   style="fill:#f2f2f2;stroke:#000000;stroke-width:4;stroke-linecap:round;stroke-linejoin:round;stroke-miterlimit:10" />
	<rect
   x="692"
   y="824.87"
   width="7"
   height="51"
   id="rect145"
   style="opacity:0.2" />
	<polygon
   points="699,880.87 699,875.87 643,875.502 642,880.87 "
   id="polygon147"
   style="opacity:0.2" />
	<rect
   x="642"
   y="880.87"
   width="8"
   height="67"
   id="rect149"
   style="opacity:0.2" />
</g>






<g
   id="g3432"
   transform="translate(1029.0184,-149.05002)"><path
     id="path151"
     d="m 650,746.87 c 0,22.092 -17.909,40 -40,40 h -10 c -22.091,0 -40,-17.908 -40,-40 l 0,0 c 0,-22.092 17.909,-40 40,-40 h 10 c 22.091,0 40,17.908 40,40 l 0,0 z"
     stroke-miterlimit="10"
     inkscape:connector-curvature="0"
     style="fill:#8e8e8e;stroke:#1a1a1a;stroke-width:8;stroke-linejoin:round;stroke-miterlimit:10" /><polygon
     id="polygon153"
     points="607.751,755.938 592,764.194 592,747.681 592,731.169 607.795,739.426 623.502,747.681 "
     stroke-miterlimit="10"
     style="fill:#f2f2f2;stroke:#000000;stroke-width:4;stroke-linecap:round;stroke-linejoin:round;stroke-miterlimit:10" /><path
     id="path155"
     d="m 619.5,711.37 c 0,0 27.07,4.609 28.547,23.146 1.477,18.537 -10.547,52.354 -28.547,53.854 -18,1.5 -19.5,-1.5 -19.5,-1.5 0,0 71.5,-29.5 19.5,-75.5 z"
     inkscape:connector-curvature="0"
     style="opacity:0.12000002" /><g
     id="g163">
	<path
   id="path165"
   d="m 630.752,683.884 -4.141,3.292 c -1.225,-1.716 -2.693,-2.766 -4.406,-3.153 -1.07,-0.24 -1.652,-0.139 -1.753,0.303 -0.077,0.345 0.599,1.015 2.024,2.014 1.918,1.364 3.227,2.422 3.926,3.172 1.347,1.447 1.869,2.847 1.564,4.198 -0.427,1.896 -1.51,3.272 -3.25,4.13 -1.621,0.799 -3.398,0.982 -5.334,0.546 -2.763,-0.623 -5.182,-2.724 -7.255,-6.306 l 4.198,-3.407 c 0.529,0.944 1.201,1.817 2.018,2.614 0.959,0.916 1.893,1.475 2.8,1.68 0.888,0.2 1.385,0.057 1.493,-0.425 0.092,-0.403 -0.665,-1.135 -2.27,-2.197 -2.163,-1.398 -3.623,-2.489 -4.378,-3.274 -1.5,-1.523 -2.07,-3.081 -1.712,-4.675 0.395,-1.753 1.566,-3.004 3.515,-3.752 1.714,-0.65 3.488,-0.771 5.323,-0.357 1.552,0.351 3.021,1.021 4.408,2.011 1.466,1.026 2.54,2.223 3.23,3.586 z"
   inkscape:connector-curvature="0" />
	<path
   id="path167"
   d="m 646.49,694.701 -4.029,-1.997 -6.565,11.714 -4.851,-2.564 6,-11.835 -4.565,-2.242 2.49,-4.505 13.635,6.973 -2.115,4.456 z"
   inkscape:connector-curvature="0" />
	<path
   id="path169"
   d="m 658.771,710.21 c -1.258,1.256 -4.02,3.565 -8.287,6.926 l -3.595,-4.735 1.71,-1.491 -2.433,-2.302 -1.381,1.6 -4.757,-3.661 c 3.434,-4.281 5.795,-7.065 7.08,-8.351 1.74,-1.739 3.68,-2.598 5.82,-2.575 2.141,0.022 4.08,0.902 5.82,2.642 1.724,1.724 2.59,3.716 2.596,5.973 0.01,2.259 -0.848,4.25 -2.573,5.974 z m -5.02,-3.968 c 0.497,-0.497 0.812,-1.045 0.942,-1.644 0.146,-0.702 -0.014,-1.287 -0.481,-1.754 -0.438,-0.438 -0.957,-0.598 -1.556,-0.481 -0.6,0.116 -1.133,0.409 -1.601,0.875 -1.052,1.053 -1.966,2.024 -2.741,2.916 l 2.719,2.631 c 0.819,-0.702 1.725,-1.549 2.718,-2.543 z"
   inkscape:connector-curvature="0" />
	<path
   id="path171"
   d="m 671.414,727.779 c -2.763,1.36 -5.482,0.959 -8.158,-1.202 l -2.931,5.277 -4.94,-3.511 3.814,-6.991 -4.756,2.34 -2.533,-5.146 10.849,-5.338 c -0.376,-0.436 -0.763,-0.892 -1.155,-1.366 l 4.885,-3.27 c 2.753,3.345 4.804,6.389 6.154,9.134 0.93,1.891 1.391,3.715 1.381,5.471 -0.016,2.22 -0.885,3.754 -2.61,4.602 z m -4.265,-5.087 c 0.426,-0.209 0.554,-0.722 0.384,-1.537 -0.099,-0.574 -0.298,-1.167 -0.6,-1.778 -0.219,-0.446 -0.488,-0.923 -0.809,-1.435 l -3.421,1.685 c 1.795,2.619 3.277,3.64 4.446,3.065 z"
   inkscape:connector-curvature="0" />
	<path
   id="path173"
   d="m 674.955,745.995 -1.002,-4.383 -13.227,2.328 -1.082,-5.38 12.962,-2.842 -1.153,-4.953 5.064,-0.922 3.227,14.97 -4.789,1.182 z"
   inkscape:connector-curvature="0" />
</g></g>
<g
   id="g3422"
   transform="translate(925.82994,-151.91637)"><path
     id="path157"
     d="m 532,747.87 c 0,22.092 -17.909,40 -40,40 h -10 c -22.091,0 -40,-17.908 -40,-40 l 0,0 c 0,-22.092 17.909,-40 40,-40 h 10 c 22.091,0 40,17.908 40,40 l 0,0 z"
     stroke-miterlimit="10"
     inkscape:connector-curvature="0"
     style="fill:#8e8e8e;stroke:#1a1a1a;stroke-width:8;stroke-linejoin:round;stroke-miterlimit:10" /><polygon
     id="polygon159"
     points="484.249,738.721 500,730.465 500,746.978 500,763.49 484.205,755.233 468.498,746.978 "
     stroke-miterlimit="10"
     style="fill:#f2f2f2;stroke:#000000;stroke-width:4;stroke-linecap:round;stroke-linejoin:round;stroke-miterlimit:10" /><path
     id="path161"
     d="m 473.5,711.87 c 0,0 -27.07,4.609 -28.546,23.146 -1.476,18.537 10.546,52.354 28.546,53.854 18,1.5 19.5,-1.5 19.5,-1.5 0,0 -71.5,-29.5 -19.5,-75.5 z"
     inkscape:connector-curvature="0"
     style="opacity:0.12000002" /><g
     id="g175">
	<path
   id="path177"
   d="m 433.996,712.044 c 1.967,1.013 3.004,2.837 3.113,5.472 0.095,2.21 -0.406,4.381 -1.502,6.514 l -3.246,0.073 1.985,1.021 -2.667,5.184 -10.778,-5.545 -0.549,2.019 -5.496,-1.99 c 0.913,-3.899 2.148,-7.366 3.708,-10.397 0.917,-1.783 2.016,-3.24 3.294,-4.371 1.748,-1.542 3.365,-1.932 4.853,-1.165 1.268,0.651 2.001,2.052 2.198,4.198 1.683,-1.555 3.378,-1.89 5.087,-1.013 z m -9.267,4.124 -0.138,-10e-4 c -0.307,0.144 -0.683,0.647 -1.127,1.511 -0.217,0.423 -0.449,0.92 -0.697,1.49 l 1.986,1.021 c 0.775,-2.272 0.767,-3.613 -0.024,-4.021 z m 6.08,1.942 -0.235,-0.016 c -0.225,0.116 -0.459,0.414 -0.704,0.892 -0.406,0.791 -0.779,1.878 -1.118,3.26 l 2.04,1.049 c 0.288,-0.967 0.483,-1.889 0.585,-2.766 0.135,-1.348 -0.054,-2.154 -0.568,-2.419 z"
   inkscape:connector-curvature="0" />
	<path
   id="path179"
   d="m 444.191,696.654 c 1.23,1.284 3.476,4.097 6.741,8.438 l -4.814,3.488 -1.452,-1.742 -2.355,2.381 1.57,1.416 -3.767,4.675 c -4.204,-3.528 -6.935,-5.95 -8.191,-7.265 -1.701,-1.777 -2.516,-3.735 -2.446,-5.876 0.07,-2.14 0.992,-4.06 2.771,-5.759 1.762,-1.687 3.772,-2.508 6.029,-2.465 2.258,0.045 4.229,0.946 5.914,2.709 z m -4.078,4.93 c -0.484,-0.508 -1.026,-0.834 -1.622,-0.979 -0.698,-0.161 -1.287,-0.014 -1.764,0.442 -0.449,0.43 -0.621,0.944 -0.518,1.547 0.104,0.601 0.384,1.141 0.841,1.619 1.028,1.074 1.979,2.01 2.854,2.805 l 2.689,-2.66 c -0.681,-0.832 -1.509,-1.758 -2.48,-2.774 z"
   inkscape:connector-curvature="0" />
	<path
   id="path181"
   d="m 465.052,694.684 c -0.832,2.963 -2.7,5.121 -5.603,6.473 -2.38,1.107 -4.698,1.281 -6.956,0.52 -2.258,-0.761 -3.941,-2.331 -5.048,-4.711 -1.265,-2.716 -1.317,-5.496 -0.156,-8.34 1.123,-2.777 3.052,-4.805 5.788,-6.078 1.929,-0.899 3.58,-1.394 4.951,-1.485 l 1.581,5.966 c -1.385,0.258 -2.387,0.531 -3.004,0.818 -1.518,0.707 -2.612,1.639 -3.282,2.793 -0.758,1.311 -0.796,2.697 -0.116,4.158 0.367,0.787 0.923,1.309 1.669,1.564 0.747,0.258 1.523,0.197 2.328,-0.178 1.893,-0.881 3.102,-2.641 3.628,-5.279 l 4.22,3.779 z"
   inkscape:connector-curvature="0" />
	<path
   id="path183"
   d="m 480.534,691.952 -2.752,3.666 -7.064,-4.701 0.877,5.322 -5.337,0.974 -3.556,-17.284 5.975,-1.275 0.911,5.506 4.513,-6.527 3.981,2.225 -4.009,7.066 6.461,5.028 z"
   inkscape:connector-curvature="0" />
</g></g>
<g
   id="g185"
   transform="translate(444.28371,-240.77311)"
   inkscape:export-filename="C:\Users\Cristian\Desktop\opengameart\png\xb_rt_2.png"
   inkscape:export-xdpi="36.36269"
   inkscape:export-ydpi="36.36269">
	
		<path
   stroke-miterlimit="10"
   d="m 150.998,786.87 h -44.785 c 0,0 -39.125,67.451 -48.722,80.74 -9.597,13.287 -25.837,35.201 -28.79,39.631 -2.953,4.429 -6.644,14.709 0,26.792 6.644,12.082 37.648,42.837 37.648,42.837 H 119.5 c 0.001,0 24.854,-37 31.498,-190 z"
   id="path187"
   inkscape:connector-curvature="0"
   style="fill:#ffffff;stroke:#000000;stroke-width:8;stroke-linecap:round;stroke-linejoin:round;stroke-miterlimit:10" />
	<polygon
   stroke-miterlimit="10"
   points="68.811,966.37 41.743,930.37 83.82,930.37 107.197,966.37 "
   id="polygon189"
   style="fill:#cccccc;stroke:#cccccc;stroke-linecap:round;stroke-linejoin:round;stroke-miterlimit:10" />
	<polygon
   stroke-miterlimit="10"
   points="92.433,919.56 118.763,861.487 145.093,795.541 115.072,955.486 "
   id="polygon191"
   style="fill:#cccccc;stroke:#cccccc;stroke-linecap:round;stroke-linejoin:round;stroke-miterlimit:10" />
	<g
   id="g193">
		<g
   id="g195">
			<g
   enable-background="new    "
   id="g197">
				<defs
   id="defs199">
					<polygon
   id="SVGID_1_"
   enable-background="new    "
   points="45.68,896.972 87.478,897.466 82.867,918.15 41.07,917.656 " />
				</defs>
				<clipPath
   id="SVGID_2_">
					<use
   xlink:href="#SVGID_1_"
   overflow="visible"
   id="use203"
   style="overflow:visible"
   x="0"
   y="0"
   width="1811.531"
   height="1191.87" />
				</clipPath>
				<g
   clip-path="url(#SVGID_2_)"
   id="g205">
					<g
   id="g207">
						<g
   id="g209">
							<g
   id="g211">
								<path
   d="m 53.068,907.097 0.872,-3.912 c 0.712,-0.051 1.36,-0.081 1.94,-0.074 0.793,0.01 1.498,0.107 2.109,0.28 0.89,0.229 1.282,0.579 1.173,1.066 -0.296,1.335 -2.321,2.211 -6.094,2.64 m 5.345,-9.974 c -3.574,-0.042 -7.925,0.417 -13.073,1.378 l -0.428,5.983 c 0.733,-0.142 1.44,-0.283 2.13,-0.425 l -2.763,12.395 6.687,0.079 1.211,-5.434 3.861,6.733 6.884,-2.879 -2.883,-5.136 c 3.971,-1.434 6.305,-3.735 7.008,-6.891 0.439,-1.971 -0.379,-3.476 -2.472,-4.522 -1.656,-0.823 -3.706,-1.252 -6.162,-1.281"
   id="path213"
   inkscape:connector-curvature="0" />
								<polyline
   points="87.065,898.355 69.17,898.271 67.851,903.538 73.813,903.488 70.962,917.084 77.352,917.191           80.886,903.444 86.153,903.409 87.065,898.355         "
   id="polyline215" />
							</g>
						</g>
					</g>
				</g>
			</g>
		</g>
	</g>
</g>
<g
   id="g217"
   transform="translate(404.15486,-237.90676)"
   inkscape:export-filename="C:\Users\Cristian\Desktop\opengameart\png\xb_lt_2.png"
   inkscape:export-xdpi="36.36269"
   inkscape:export-ydpi="36.36269">
	<g
   id="g219">
		
			<path
   stroke-miterlimit="10"
   d="m 235.313,780.87 h 44.785 c 0,0 39.125,67.546 48.722,80.834 9.597,13.288 25.837,35.249 28.79,39.679 2.952,4.429 6.644,14.64 0,26.722 -6.645,12.082 -37.648,42.766 -37.648,42.766 h -53.151 c 0,-10e-4 -24.854,-36.454 -31.498,-190.001 z"
   id="path221"
   inkscape:connector-curvature="0"
   style="fill:#ffffff;stroke:#000000;stroke-width:8;stroke-linecap:round;stroke-linejoin:round;stroke-miterlimit:10" />
		<polygon
   stroke-miterlimit="10"
   points="317.501,960.37 344.568,924.37 302.491,924.37 279.114,960.37 "
   id="polygon223"
   style="fill:#cccccc;stroke:#cccccc;stroke-linecap:round;stroke-linejoin:round;stroke-miterlimit:10" />
		<polygon
   stroke-miterlimit="10"
   points="293.878,913.749 267.549,855.675 241.219,789.73 271.24,949.674 "
   id="polygon225"
   style="fill:#cccccc;stroke:#cccccc;stroke-linecap:round;stroke-linejoin:round;stroke-miterlimit:10" />
	</g>
	<g
   id="g227">
		<g
   id="g229">
			<g
   enable-background="new    "
   id="g231">
				<defs
   id="defs233">
					<polygon
   id="SVGID_3_"
   enable-background="new    "
   points="296.304,891.084 339.566,888.112 346.602,906.225 303.339,909.198 " />
				</defs>
				<clipPath
   id="SVGID_4_">
					<use
   xlink:href="#SVGID_3_"
   overflow="visible"
   id="use237"
   style="overflow:visible"
   x="0"
   y="0"
   width="1811.531"
   height="1191.87" />
				</clipPath>
				<g
   clip-path="url(#SVGID_4_)"
   id="g239">
					<g
   id="g241">
						<g
   id="g243">
							<g
   id="g245">
								<g
   id="g247">
									<defs
   id="defs249">
										<polyline
   id="SVGID_5_"
   points="303.189,908.813 300.896,890.769 339.719,888.504 342.009,906.541 303.189,908.813                       " />
									</defs>
									<clipPath
   id="SVGID_6_">
										<use
   xlink:href="#SVGID_5_"
   overflow="visible"
   id="use253"
   style="overflow:visible"
   x="0"
   y="0"
   width="1811.531"
   height="1191.87" />
									</clipPath>
									<path
   clip-path="url(#SVGID_6_)"
   d="m 301.33,890.744 c 0.268,4.149 0.529,7.362 0.788,9.642 l 0.217,1.705 c 0.28,2.044 0.616,4.085 1.009,6.127 2.223,-0.088 4.059,-0.178 5.502,-0.263 0.365,-0.021 0.75,-0.046 1.155,-0.073 2.647,-0.182 6.157,-0.506 10.544,-0.976 l -0.706,-5.295 -10.002,0.645 -0.528,-4.211 c -0.143,-1.102 -0.395,-3.673 -0.74,-7.694 l -6.248,0.336 -0.991,0.057"
   id="path255"
   inkscape:connector-curvature="0" />
									<polyline
   clip-path="url(#SVGID_6_)"
   points="319.97,889.805 320.447,894.833 326.917,894.339 328.754,907.279            335.757,906.906 334.609,893.774 340.333,893.337 340.321,893.244 339.482,888.542 319.97,889.805          "
   id="polyline257" />
								</g>
							</g>
						</g>
					</g>
				</g>
			</g>
		</g>
	</g>
</g>

<g
   id="g3452"
   transform="translate(553.20488,-332.4962)"><g
     id="g259">
	
		<path
   id="path261"
   d="m 461,1056.87 c 0,16.568 -13.432,30 -30,30 H 291 c -16.568,0 -30,-13.432 -30,-30 v -20 c 0,-16.568 13.432,-30 30,-30 h 140 c 16.568,0 30,13.432 30,30 v 20 z"
   stroke-miterlimit="10"
   inkscape:connector-curvature="0"
   style="fill:#ffffff;stroke:#000000;stroke-width:8;stroke-linecap:round;stroke-linejoin:round;stroke-miterlimit:10" />
	<path
   id="path263"
   d="m 297,1086.444 c 0,0 -20.666,-16.666 -21.333,-28 -0.667,-11.334 -1.351,-41.334 19.325,-43.334 20.676,-2 105.008,-6 105.008,-6 0,0 -131.844,-14.431 -135.422,13.118 -3.578,27.549 -10.911,64.216 32.422,64.216 z"
   inkscape:connector-curvature="0"
   style="opacity:0.2" />
	<path
   id="path265"
   d="m 402.5,1086.444 c 0,0 35.167,-1.667 43.167,-15.667 8,-14 12.996,-34.543 11,-45.435 -1.996,-10.892 11.066,38.584 -1.302,48.596 -12.368,10.012 -34.865,17.006 -52.865,12.506 z"
   inkscape:connector-curvature="0"
   style="opacity:0.1" />
</g><g
     id="g267">
	<path
   id="path269"
   d="m 359.978,1038.159 c 0,5.348 -2.71,9.277 -8.129,11.789 l 5.976,8.615 -9.26,5.006 -7.967,-11.305 v 9.205 h -9.959 v -20.996 c -0.969,0.252 -1.975,0.504 -3.015,0.754 l -1.346,-10.121 c 7.322,-1.723 13.638,-2.584 18.95,-2.584 3.661,0 6.854,0.682 9.583,2.047 3.444,1.723 5.167,4.252 5.167,7.59 z m -11.198,2.746 c 0,-0.826 -0.7,-1.418 -2.1,-1.777 -0.969,-0.287 -2.046,-0.43 -3.23,-0.43 -0.861,0 -1.812,0.053 -2.853,0.16 v 6.623 c 5.455,-0.789 8.183,-2.316 8.183,-4.576 z"
   inkscape:connector-curvature="0" />
	<path
   id="path271"
   d="m 395.293,1050.542 c 0,3.84 -1.992,6.891 -5.976,9.15 -3.338,1.902 -7.089,2.854 -11.251,2.854 l -2.692,-4.951 v 3.875 h -10.121 v -21.049 l -3.553,0.754 -1.292,-10.068 c 6.747,-1.686 13.082,-2.529 19.004,-2.529 3.481,0 6.603,0.537 9.367,1.615 3.769,1.471 5.653,3.66 5.653,6.566 0,2.477 -1.58,4.721 -4.737,6.73 3.731,1.363 5.598,3.715 5.598,7.053 z m -13.728,-11.038 -0.107,-0.215 c -0.467,-0.359 -1.544,-0.539 -3.23,-0.539 -0.826,0 -1.776,0.037 -2.853,0.107 v 3.877 c 4.126,-0.609 6.19,-1.687 6.19,-3.23 z m 1.831,10.93 -0.162,-0.377 c -0.359,-0.252 -1.005,-0.377 -1.938,-0.377 -1.543,0 -3.518,0.287 -5.922,0.861 v 3.982 c 1.723,-0.322 3.302,-0.754 4.737,-1.291 2.189,-0.86 3.285,-1.794 3.285,-2.798 z"
   inkscape:connector-curvature="0" />
</g></g>

<g
   id="g3443"
   transform="translate(765.31453,-450.01641)"><g
     id="g273">
	
		<path
   id="path275"
   d="m 244,1036.87 c 0,-16.568 -13.432,-30 -30,-30 H 74 c -16.568,0 -30,13.432 -30,30 v 20 c 0,16.568 13.432,30 30,30 h 140 c 16.568,0 30,-13.432 30,-30 v -20 z"
   stroke-miterlimit="10"
   inkscape:connector-curvature="0"
   style="fill:#ffffff;stroke:#000000;stroke-width:8;stroke-linecap:round;stroke-linejoin:round;stroke-miterlimit:10" />
	<path
   id="path277"
   d="m 208,1086.444 c 0,0 20.666,-16.666 21.333,-28 0.667,-11.334 1.351,-41.334 -19.325,-43.334 -20.675,-2 -105.008,-6 -105.008,-6 0,0 131.844,-14.431 135.422,13.118 3.578,27.549 10.912,64.216 -32.422,64.216 z"
   inkscape:connector-curvature="0"
   style="opacity:0.2" />
	<path
   id="path279"
   d="m 102.5,1086.444 c 0,0 -35.166,-1.667 -43.166,-15.667 -8,-14 -12.996,-34.543 -11,-45.435 1.996,-10.892 -11.066,38.584 1.302,48.596 12.368,10.012 34.864,17.006 52.864,12.506 z"
   inkscape:connector-curvature="0"
   style="opacity:0.1" />
</g><g
     id="g281">
	<path
   id="path283"
   d="m 139.855,1060.5 c -6.927,0.43 -12.257,0.646 -15.989,0.646 -1.974,0 -4.468,-0.037 -7.483,-0.107 -0.215,-4.199 -0.323,-8.398 -0.323,-12.598 0,-4.092 0.197,-10.246 0.592,-18.467 l 9.852,0.055 c -0.215,7.143 -0.323,11.701 -0.323,13.674 v 7.482 l 13.621,-0.107 0.053,9.422 z"
   stroke-miterlimit="10"
   inkscape:connector-curvature="0"
   style="stroke:#000000;stroke-width:0.25;stroke-miterlimit:10" />
	<path
   id="path285"
   d="m 173.018,1050.542 c 0,3.84 -1.992,6.891 -5.976,9.15 -3.338,1.902 -7.089,2.854 -11.251,2.854 l -2.692,-4.951 v 3.875 h -10.121 v -21.049 l -3.553,0.754 -1.292,-10.068 c 6.747,-1.686 13.082,-2.529 19.004,-2.529 3.481,0 6.603,0.537 9.367,1.615 3.769,1.471 5.653,3.66 5.653,6.566 0,2.477 -1.58,4.721 -4.737,6.73 3.731,1.363 5.598,3.715 5.598,7.053 z m -13.728,-11.038 -0.107,-0.215 c -0.467,-0.359 -1.544,-0.539 -3.23,-0.539 -0.826,0 -1.776,0.037 -2.853,0.107 v 3.877 c 4.126,-0.609 6.19,-1.687 6.19,-3.23 z m 1.83,10.93 -0.162,-0.377 c -0.359,-0.252 -1.005,-0.377 -1.938,-0.377 -1.543,0 -3.518,0.287 -5.922,0.861 v 3.982 c 1.723,-0.322 3.302,-0.754 4.737,-1.291 2.19,-0.86 3.285,-1.794 3.285,-2.798 z"
   stroke-miterlimit="10"
   inkscape:connector-curvature="0"
   style="stroke:#000000;stroke-width:0.25;stroke-miterlimit:10" />
</g></g>
<g
   id="g287"
   transform="translate(65.926016,-157.64906)">
	
		<ellipse
   stroke-miterlimit="10"
   cx="362.41901"
   cy="323.37"
   rx="86.031998"
   ry="63.5"
   id="ellipse289"
   d="m 448.451,323.37 c 0,35.07008 -38.51783,63.5 -86.03199,63.5 -47.51416,0 -86.032,-28.42992 -86.032,-63.5 0,-35.07009 38.51784,-63.5 86.032,-63.5 47.51416,0 86.03199,28.42991 86.03199,63.5 z"
   sodipodi:cx="362.41901"
   sodipodi:cy="323.37"
   sodipodi:rx="86.031998"
   sodipodi:ry="63.5"
   style="fill:#ffffff;stroke:#000000;stroke-width:8;stroke-miterlimit:10" />
	<ellipse
   cx="362.418"
   cy="292.37"
   rx="89.052002"
   ry="52.5"
   id="ellipse291"
   d="m 451.47,292.37 c 0,28.99494 -39.86994,52.5 -89.052,52.5 -49.18206,0 -89.052,-23.50506 -89.052,-52.5 0,-28.99495 39.86994,-52.5 89.052,-52.5 49.18206,0 89.052,23.50505 89.052,52.5 z"
   sodipodi:cx="362.418"
   sodipodi:cy="292.37"
   sodipodi:rx="89.052002"
   sodipodi:ry="52.5"
   style="fill:#e6e6e6" />
	<ellipse
   stroke-miterlimit="10"
   cx="362.418"
   cy="277.37"
   rx="127"
   ry="80.5"
   id="ellipse293"
   d="m 489.418,277.37 c 0,44.45892 -56.85984,80.5 -127,80.5 -70.14016,0 -127,-36.04108 -127,-80.5 0,-44.45893 56.85984,-80.5 127,-80.5 70.14016,0 127,36.04107 127,80.5 z"
   sodipodi:cx="362.418"
   sodipodi:cy="277.37"
   sodipodi:rx="127"
   sodipodi:ry="80.5"
   style="fill:#ffffff;stroke:#000000;stroke-width:8;stroke-miterlimit:10" />
	
		<ellipse
   stroke-miterlimit="10"
   cx="362.418"
   cy="268.31601"
   rx="89.052002"
   ry="56.446999"
   id="ellipse295"
   d="m 451.47,268.31601 c 0,31.17482 -39.86994,56.447 -89.052,56.447 -49.18206,0 -89.052,-25.27218 -89.052,-56.447 0,-31.17482 39.86994,-56.447 89.052,-56.447 49.18206,0 89.052,25.27218 89.052,56.447 z"
   sodipodi:cx="362.418"
   sodipodi:cy="268.31601"
   sodipodi:rx="89.052002"
   sodipodi:ry="56.446999"
   style="fill:#ffffff;stroke:#000000;stroke-width:5;stroke-miterlimit:10" />
	<g
   id="g297">
		<path
   d="m 383.046,295.484 c -12.01,0.746 -21.25,1.12 -27.721,1.12 -3.423,0 -7.747,-0.063 -12.974,-0.188 -0.373,-7.279 -0.561,-14.56 -0.561,-21.84 0,-7.094 0.342,-17.765 1.027,-32.014 l 17.08,0.093 c -0.373,12.383 -0.56,20.286 -0.56,23.707 v 12.974 l 23.614,-0.187 0.095,16.335 z"
   id="path299"
   inkscape:connector-curvature="0" />
	</g>
	<path
   d="m 347.581,201.347 c 0,0 -58.005,9.846 -86.081,38.772 -9.631,9.921 -16.922,26.064 -16.5,40.75 0.332,11.566 6.89,20.899 11,34.667 0,0 -10.572,-8.213 -14.666,-23.834 -1.263,-4.814 -2.322,-10.357 -2,-16.333 0.357,-6.613 2.306,-13.721 5.333,-20.167 6.226,-13.254 19.247,-28.191 44.999,-39.667 7.996,-3.563 18.738,-7.502 29,-9.667 9.08,-1.914 18,-3.332 28.915,-4.521 z"
   id="path301"
   inkscape:connector-curvature="0"
   style="fill:#cccccc" />
</g>
<g
   id="g303"
   transform="translate(392.68948,-157.64906)">
	
		<ellipse
   stroke-miterlimit="10"
   cx="656.297"
   cy="327.37"
   rx="86.031998"
   ry="63.5"
   id="ellipse305"
   d="m 742.32899,327.37 c 0,35.07008 -38.51783,63.5 -86.03199,63.5 -47.51416,0 -86.032,-28.42992 -86.032,-63.5 0,-35.07009 38.51784,-63.5 86.032,-63.5 47.51416,0 86.03199,28.42991 86.03199,63.5 z"
   sodipodi:cx="656.297"
   sodipodi:cy="327.37"
   sodipodi:rx="86.031998"
   sodipodi:ry="63.5"
   style="fill:#ffffff;stroke:#000000;stroke-width:8;stroke-miterlimit:10" />
	<ellipse
   cx="656.29602"
   cy="296.37"
   rx="89.052002"
   ry="52.5"
   id="ellipse307"
   d="m 745.34802,296.37 c 0,28.99494 -39.86994,52.5 -89.052,52.5 -49.18206,0 -89.052,-23.50506 -89.052,-52.5 0,-28.99495 39.86994,-52.5 89.052,-52.5 49.18206,0 89.052,23.50505 89.052,52.5 z"
   sodipodi:cx="656.29602"
   sodipodi:cy="296.37"
   sodipodi:rx="89.052002"
   sodipodi:ry="52.5"
   style="fill:#e6e6e6" />
	<ellipse
   stroke-miterlimit="10"
   cx="656.29602"
   cy="281.37"
   rx="127"
   ry="80.5"
   id="ellipse309"
   d="m 783.29602,281.37 c 0,44.45892 -56.85984,80.5 -127,80.5 -70.14016,0 -127,-36.04108 -127,-80.5 0,-44.45893 56.85984,-80.5 127,-80.5 70.14016,0 127,36.04107 127,80.5 z"
   sodipodi:cx="656.29602"
   sodipodi:cy="281.37"
   sodipodi:rx="127"
   sodipodi:ry="80.5"
   style="fill:#ffffff;stroke:#000000;stroke-width:8;stroke-miterlimit:10" />
	
		<ellipse
   stroke-miterlimit="10"
   cx="656.29602"
   cy="272.31601"
   rx="89.052002"
   ry="56.446999"
   id="ellipse311"
   d="m 745.34802,272.31601 c 0,31.17482 -39.86994,56.447 -89.052,56.447 -49.18206,0 -89.052,-25.27218 -89.052,-56.447 0,-31.17482 39.86994,-56.447 89.052,-56.447 49.18206,0 89.052,25.27218 89.052,56.447 z"
   sodipodi:cx="656.29602"
   sodipodi:cy="272.31601"
   sodipodi:rx="89.052002"
   sodipodi:ry="56.446999"
   style="fill:#ffffff;stroke:#000000;stroke-width:5;stroke-miterlimit:10" />
	<path
   d="m 641.581,205.347 c 0,0 -58.005,9.846 -86.081,38.772 -9.631,9.921 -16.922,26.064 -16.5,40.75 0.332,11.566 6.89,20.899 11,34.667 0,0 -10.572,-8.213 -14.666,-23.834 -1.263,-4.814 -2.322,-10.356 -2,-16.333 0.357,-6.613 2.306,-13.721 5.333,-20.167 6.226,-13.254 19.247,-28.191 44.999,-39.667 7.996,-3.563 18.738,-7.502 29,-9.667 9.08,-1.914 18,-3.332 28.915,-4.521 z"
   id="path313"
   inkscape:connector-curvature="0"
   style="fill:#cccccc" />
	<g
   id="g315">
		<path
   d="m 681.314,256.437 c 0,7.94 -4.024,13.775 -12.069,17.505 l 8.872,12.789 -13.748,7.434 -11.829,-16.785 v 13.668 h -14.787 v -31.173 c -1.439,0.374 -2.932,0.747 -4.477,1.119 l -1.998,-15.027 c 10.87,-2.558 20.248,-3.836 28.136,-3.836 5.435,0 10.177,1.013 14.227,3.037 5.116,2.556 7.673,6.313 7.673,11.269 z m -16.625,4.076 c 0,-1.225 -1.04,-2.104 -3.118,-2.638 -1.438,-0.426 -3.037,-0.64 -4.795,-0.64 -1.279,0 -2.691,0.08 -4.236,0.24 v 9.832 c 8.099,-1.171 12.149,-3.437 12.149,-6.794 z"
   id="path317"
   inkscape:connector-curvature="0" />
	</g>
</g>



<g
   id="g345"
   transform="translate(-834.10684,-613.39816)">
	<g
   id="g347">
		<path
   d="m 938.348,1095.87 c -2.195,0 -3.98,-1.748 -4,-3.943 l -0.398,-44.739 -44.998,-0.544 c -2.189,-0.027 -3.951,-1.804 -3.951,-3.994 v -71.104 c 0,-1.07 0.43,-2.097 1.191,-2.849 0.749,-0.738 1.759,-1.151 2.809,-1.151 0.019,0 45.256,0.644 45.256,0.644 l 0.092,-47.306 c 0.004,-2.206 1.794,-4.014 4,-4.014 h 71.106 c 2.185,0 3.965,1.773 3.999,3.957 l 0.73,45.511 45.921,1.204 c 2.168,0.057 3.896,1.835 3.896,4.004 v 71.104 c 0,1.066 -0.426,2.089 -1.183,2.84 -0.75,0.743 -1.763,1.16 -2.817,1.16 -0.011,0 -45.817,-0.371 -45.817,-0.371 l -0.729,45.677 c -0.034,2.185 -1.814,3.915 -3.999,3.915 h -71.108 z"
   id="path349"
   inkscape:connector-curvature="0"
   style="fill:#8e8e8e" />
		<path
   d="m 1009.454,920.87 0.792,49.355 49.754,1.32 v 71.104 l -49.754,-0.425 -0.792,49.646 h -34.627 -36.479 l -0.434,-48.646 -48.914,-0.575 v -71.104 l 49.248,0.68 0.1,-51.355 H 1009 m 0.454,-8 h -71.106 c -4.412,0 -7.991,3.594 -8,8.006 l -0.084,43.408 -41.149,-0.414 c -0.038,0 -0.076,0 -0.114,0 -2.101,0 -4.118,0.664 -5.616,2.141 -1.525,1.504 -2.384,3.394 -2.384,5.535 v 71.104 c 0,4.38 3.522,7.946 7.902,7.999 l 41.082,0.502 0.363,40.812 c 0.039,4.391 3.609,7.907 8,7.907 h 36.479 34.627 c 4.368,0 7.93,-3.483 7.999,-7.851 l 0.665,-41.609 41.817,0.46 c 0.021,0 0.043,0 0.064,0 2.109,0 4.135,-0.943 5.634,-2.431 1.515,-1.502 2.366,-3.657 2.366,-5.79 v -71.104 c 0,-4.337 -3.456,-7.884 -7.791,-7.997 l -42.087,-1.099 -0.669,-41.688 c -0.069,-4.366 -3.63,-7.891 -7.998,-7.891 l 0,0 z"
   id="path351"
   inkscape:connector-curvature="0"
   style="fill:#1a1a1a" />
	</g>
	
		<polygon
   stroke-miterlimit="10"
   points="916,1025.591 906.498,1016.001 897.059,1006.413 906.529,996.823 916,987.233 916,1006.413 "
   id="polygon353"
   style="fill:#f2f2f2;stroke:#000000;stroke-width:4;stroke-linecap:round;stroke-linejoin:round;stroke-miterlimit:10" />
	<rect
   x="938"
   y="920.87"
   width="7"
   height="51"
   id="rect355"
   style="opacity:0.2" />
	<polygon
   points="945,976.87 945,971.87 889,971.502 888,976.87 "
   id="polygon357"
   style="opacity:0.2" />
	<rect
   x="888"
   y="976.87"
   width="8"
   height="67"
   id="rect359"
   style="opacity:0.2" />
	
		<polygon
   stroke-miterlimit="10"
   points="1033,987.233 1042.53,996.823 1051.984,1006.411 1042.492,1016 1033,1025.59 1033,1006.411 "
   id="polygon361"
   style="fill:#f2f2f2;stroke:#000000;stroke-width:4;stroke-linecap:round;stroke-linejoin:round;stroke-miterlimit:10" />
	
		<polygon
   stroke-miterlimit="10"
   points="955.313,945.87 964.903,936.356 974.491,926.911 984.081,936.39 993.671,945.87 974.491,945.87 "
   id="polygon363"
   style="fill:#f2f2f2;stroke:#000000;stroke-width:4;stroke-linecap:round;stroke-linejoin:round;stroke-miterlimit:10" />
	
		<polygon
   stroke-miterlimit="10"
   points="993.669,1064.87 984.079,1074.405 974.491,1083.86 964.901,1074.366 955.312,1064.87 974.491,1064.87 "
   id="polygon365"
   style="fill:#f2f2f2;stroke:#000000;stroke-width:4;stroke-linecap:round;stroke-linejoin:round;stroke-miterlimit:10" />
</g>



<g
   id="g409"
   transform="translate(-745.2501,421.35294)">
	<g
   id="g411">
		
			<path
   stroke-miterlimit="10"
   d="m 782,126.87 h 167 v 149 h -95 c 0,0 -3,-109 -72,-113 v -36 z"
   id="path413"
   inkscape:connector-curvature="0"
   style="fill:#ffffff;stroke:#000000;stroke-width:8;stroke-linecap:round;stroke-linejoin:round;stroke-miterlimit:10" />
		<rect
   x="940"
   y="126.87"
   width="9"
   height="149"
   id="rect415"
   style="opacity:0.2" />
		<rect
   x="782"
   y="126.87"
   width="158"
   height="9"
   id="rect417"
   style="opacity:0.2" />
	</g>
	<g
   id="g419">
		<path
   stroke-miterlimit="10"
   d="m 895.694,193.855 c 0,5.462 -2.769,9.476 -8.303,12.042 l 6.104,8.797 -9.457,5.113 -8.138,-11.546 v 9.402 H 865.728 V 196.22 c -0.989,0.257 -2.016,0.514 -3.078,0.77 l -1.375,-10.337 c 7.478,-1.759 13.929,-2.639 19.354,-2.639 3.739,0 7.001,0.697 9.787,2.089 3.519,1.759 5.278,4.343 5.278,7.752 z m -11.436,2.804 c 0,-0.843 -0.715,-1.447 -2.145,-1.814 -0.989,-0.293 -2.089,-0.44 -3.299,-0.44 -0.88,0 -1.852,0.055 -2.914,0.165 v 6.763 c 5.572,-0.806 8.358,-2.364 8.358,-4.674 z"
   id="path421"
   inkscape:connector-curvature="0"
   style="stroke:#000000;stroke-width:2;stroke-miterlimit:10" />
		<path
   stroke-miterlimit="10"
   d="m 924.834,194.295 -7.972,0.165 -0.715,23.807 -9.732,-0.055 -0.274,-23.533 -9.018,0.22 0.221,-9.127 27.161,-0.22 0.329,8.743 z"
   id="path423"
   inkscape:connector-curvature="0"
   style="stroke:#000000;stroke-width:2;stroke-miterlimit:10" />
	</g>
</g>
<g
   id="g425"
   transform="translate(-707.98759,421.35294)">
	<g
   id="g427">
		
			<path
   stroke-miterlimit="10"
   d="M 1141,128.87 H 974 v 149 h 95 c 0,0 3,-109 72,-113 v -36 z"
   id="path429"
   inkscape:connector-curvature="0"
   style="fill:#ffffff;stroke:#000000;stroke-width:8;stroke-linecap:round;stroke-linejoin:round;stroke-miterlimit:10" />
		<rect
   x="974"
   y="128.87"
   width="9"
   height="149"
   id="rect431"
   style="opacity:0.2" />
		<rect
   x="983"
   y="128.87"
   width="158"
   height="9"
   id="rect433"
   style="opacity:0.2" />
	</g>
	<g
   id="g435">
		<path
   stroke-miterlimit="10"
   d="m 1025.156,216.035 c -7.075,0.44 -12.519,0.66 -16.33,0.66 -2.017,0 -4.563,-0.037 -7.643,-0.11 -0.22,-4.289 -0.33,-8.577 -0.33,-12.866 0,-4.179 0.201,-10.465 0.605,-18.859 l 10.062,0.055 c -0.22,7.295 -0.33,11.95 -0.33,13.966 v 7.642 l 13.91,-0.11 0.056,9.622 z"
   id="path437"
   inkscape:connector-curvature="0"
   style="stroke:#000000;stroke-width:2;stroke-miterlimit:10" />
		<path
   stroke-miterlimit="10"
   d="m 1050.997,193.657 -7.972,0.165 -0.715,23.807 -9.732,-0.055 -0.274,-23.533 -9.018,0.22 0.221,-9.127 27.161,-0.22 0.329,8.743 z"
   id="path439"
   inkscape:connector-curvature="0"
   style="stroke:#000000;stroke-width:2;stroke-miterlimit:10" />
	</g>
</g>
</svg>